<svg xmlns="http://www.w3.org/2000/svg" width="447" height="116" viewBox="0 0 447 116">
  <g fill="none">
    <polygon fill="#AB2B4A" points="100.29 29.13 100.29 86.87 89.59 73.06 83.63 58 83.62 58 89.28 42.73"/>
    <polygon fill="#E87A68" points=".3 29.13 .3 86.87 9.75 73.48 16.96 58 16.96 58 9.64 43.32"/>
    <polygon fill="#D74D4E" points="83.62 58 52.11 60 16.96 58 31.63 29.13 50.29 .27 70.59 31.96"/>
    <polygon fill="#BD3246" points="100.29 29.13 83.62 58 50.29 .27"/>
    <polygon fill="#F19175" points="50.29 .27 16.96 58 .29 29.13"/>
    <polygon fill="#CF3942" points="83.62 58 72.23 82.93 50.29 115.74 27.71 81.83 16.96 58"/>
    <polygon fill="#E0625B" points="50.29 115.74 .29 86.87 16.96 58"/>
    <polygon fill="#9A244F" points="50.29 115.74 100.29 86.87 83.62 58"/>
    <g fill="#39396D" transform="translate(128 35)">
      <path d="M15.152,18.87 C10.431,18.87 7.245,22.47 7.245,27.013 C7.245,31.556 10.49,35.215 15.093,35.215 C17.984,35.215 20.285,34.212 22.055,32.442 L25.714,37.753 C23.472,40.23 19.4,42 14.916,42 C6.538,42 0.047,35.273 0.047,27.071 C0.047,18.81 6.538,12.084 14.798,12.084 C19.636,12.084 23.472,13.736 25.95,16.333 L21.82,21.466 C20.05,19.755 17.925,18.87 15.152,18.87 Z"/>
      <polygon points="31.14 .578 38.339 .578 38.339 41.174 31.14 41.174"/>
      <path d="M44.886,27.072 C44.886,18.811 51.022,12.085 59.165,12.085 C67.249,12.085 73.385,18.339 73.385,26.482 C73.385,27.367 73.326,28.37 73.208,28.842 L52.261,28.842 C52.969,32.795 55.978,35.628 60.345,35.628 C63.177,35.628 65.596,34.389 67.249,32.678 L70.966,37.575 C68.841,40.053 64.829,42 60.05,42 C51.259,42 44.886,35.274 44.886,27.072 Z M52.38,24.299 L66.01,24.299 C65.184,20.286 62.647,18.221 59.283,18.221 C55.684,18.221 53.206,20.699 52.38,24.299 Z"/>
      <polygon points="104.775 12.911 94.567 41.175 85.244 41.175 74.977 12.911 82.884 12.911 90.082 34.743 97.399 12.911"/>
      <path d="M106.778 27.072C106.778 18.811 112.914 12.085 121.057 12.085 129.141 12.085 135.277 18.339 135.277 26.482 135.277 27.367 135.218 28.37 135.1 28.842L114.153 28.842C114.861 32.795 117.87 35.628 122.237 35.628 125.069 35.628 127.488 34.389 129.141 32.678L132.858 37.575C130.733 40.053 126.721 42 121.942 42 113.15 42 106.778 35.274 106.778 27.072zM114.271 24.299L127.901 24.299C127.075 20.286 124.538 18.221 121.174 18.221 117.576 18.221 115.098 20.699 114.271 24.299zM148.669 41.174L141.47 41.174 141.47 12.91 148.669 12.91 148.669 15.978C150.262 13.618 152.622 12.083 155.572 12.083 157.46 12.083 158.994 12.614 160.115 13.499L157.106 20.344C156.162 19.577 154.746 19.105 153.389 19.105 150.498 19.105 148.669 21.524 148.669 25.36L148.669 41.174zM191.326 18.87C186.605 18.87 183.419 22.47 183.419 27.013 183.419 31.556 186.664 35.215 191.267 35.215 194.158 35.215 196.459 34.212 198.229 32.442L201.888 37.753C199.646 40.232 195.575 42.002 191.09 42.002 182.712 42.002 176.221 35.275 176.221 27.073 176.221 18.812 182.712 12.086 190.972 12.086 195.81 12.086 199.646 13.738 202.124 16.335L197.994 21.468C196.223 19.755 194.099 18.87 191.326 18.87z"/>
      <polygon points="207.313 .578 214.512 .578 214.512 41.174 207.313 41.174"/>
      <path d="M221.06 27.072C221.06 18.811 227.551 12.085 235.752 12.085 243.953 12.085 250.503 18.812 250.503 27.072 250.503 35.274 243.953 42.001 235.752 42.001 227.551 42.001 221.06 35.274 221.06 27.072zM243.246 27.013C243.246 22.47 240.119 18.87 235.811 18.87 231.444 18.87 228.258 22.47 228.258 27.013 228.258 31.556 231.444 35.215 235.811 35.215 240.118 35.215 243.246 31.556 243.246 27.013zM263.834 28.193C263.834 32.323 266.253 35.097 269.853 35.097 273.452 35.097 275.872 32.324 275.872 28.193L275.872 12.911 283.071 12.911 283.071 28.724C283.071 36.631 277.82 41.882 269.854 41.882 261.888 41.882 256.637 36.631 256.637 28.724L256.637 12.911 263.836 12.911 263.836 28.193 263.834 28.193zM318.706.578L318.706 41.174 311.448 41.174 311.448 38.106C309.383 40.525 306.491 42.001 302.833 42.001 295.339 42.001 289.262 35.864 289.262 27.072 289.262 18.516 294.986 12.085 302.833 12.085 306.55 12.085 309.441 13.442 311.448 15.743L311.448.578 318.706.578zM311.448 27.013C311.448 22.47 308.321 18.87 304.013 18.87 299.646 18.87 296.46 22.47 296.46 27.013 296.46 31.556 299.646 35.215 304.013 35.215 308.32 35.215 311.448 31.556 311.448 27.013z"/>
    </g>
  </g>
</svg>
